PathFileType	4	(X/Y/Z)	Patient4_TMGait_0pt5_01_right_27.trc.trc
DataRate	CameraRate	NumFrames	NumMarkers	Units	OrigDataRate	OrigDataStartFrame	OrigNumFrames
75.675675675676	75.675675675676	4	33	mm	75.675675675676	36	       141
Frame#	Time	L.ASIS			Sacral			L.Shoulder			Chest			R.Shoulder			Neck			R.ASIS			R.Thigh.Superior			R.Thigh.Lateral			R.Thigh.Inferior			R.Patella			L.Thigh.Superior			L.Thigh.Lateral			L.Thigh.Inferior			L.Patella			L.Shank.Superior			L.Shank.Lateral			L.Shank.Inferior			R.Shank.Superior			R.Shank.Lateral			R.Shank.Inferior			R.Heel			R.Midfoot.Superior			R.Midfoot.Lateral			R.Toe			L.Heel			L.Midfoot.Lateral			L.Midfoot.Superior			L.Toe			L.Elbow			L.Wrist			R.Elbow			R.Wrist			
		X1	Y1	Z1	X2	Y2	Z2	X3	Y3	Z3	X4	Y4	Z4	X5	Y5	Z5	X6	Y6	Z6	X7	Y7	Z7	X8	Y8	Z8	X9	Y9	Z9	X10	Y10	Z10	X11	Y11	Z11	X12	Y12	Z12	X13	Y13	Z13	X14	Y14	Z14	X15	Y15	Z15	X16	Y16	Z16	X17	Y17	Z17	X18	Y18	Z18	X19	Y19	Z19	X20	Y20	Z20	X21	Y21	Z21	X22	Y22	Z22	X23	Y23	Z23	X24	Y24	Z24	X25	Y25	Z25	X26	Y26	Z26	X27	Y27	Z27	X28	Y28	Z28	X29	Y29	Z29	X30	Y30	Z30	X31	Y31	Z31	X32	Y32	Z32	X33	Y33	Z33	

36	35.892500000000	881.006895752148	954.365047776734	351.141664639140	657.669676472983	1002.089870084128	492.804135282937	851.813086457028	1430.332614827126	330.039113530363	939.536071538300	1356.467484517004	498.536247251384	841.772378187090	1430.878862003392	666.051149338366	841.808049199197	1490.470575210298	481.406260461497	878.935190155834	936.170074067894	625.361931224646	943.286601378061	748.015436104615	594.951048602081	871.209343849391	632.681390455062	649.501782972690	957.645265159281	588.313928822010	572.656211368958	968.928115223143	498.168195291020	578.382297150177	907.421891400717	732.402189206910	375.981084333776	814.255442569321	624.392224287456	307.975107264197	889.416214983901	535.087394603964	370.389371539085	877.789352582787	451.886454251794	369.479825206300	813.863890857379	394.013185555720	361.406317574953	680.484069536158	339.691706583502	305.558490758025	671.703490729418	213.602752178239	366.867209283886	943.639425376813	408.139871786479	583.377090412172	875.773012981300	301.190207578929	642.733131692234	922.753157450569	208.459105231960	580.404134151543	793.776200477469	43.168445523492	547.253257715237	964.447731883852	97.725080529138	585.478247325935	876.172050267922	36.852358685184	623.440187649632	1084.233678319200	45.099600498083	615.462782593065	485.878577005779	126.792225437415	399.567104516295	550.824432594744	93.320868367990	319.765559485678	651.276614967276	117.662398018239	343.556491148168	746.105501653278	32.870166085575	314.907217605058	874.711006116486	1085.748188823744	191.856100953770	1105.408260432705	964.474418761686	206.690070553654	725.471377958906	1100.793915826762	762.926258134842	745.559202967883	840.390335587552	772.131248195937	
37	35.905714285714	880.681047306013	955.158202641742	353.176048957340	658.415657104245	1003.219858949069	496.383616402390	851.815404431236	1431.225342696174	332.660644381038	940.839249079885	1357.052757910093	500.392420994067	844.687352909926	1431.543543925654	668.776568747906	843.056927936829	1491.261834284779	484.158581446145	879.994612725104	936.784134249942	627.352953955606	942.109096713978	747.230405708635	597.751755350978	868.552387963124	632.820391185418	651.711528139808	954.589554343616	587.634801511293	574.817857505963	964.870405035601	497.559333667638	580.245425083596	912.042730834624	735.226508512214	378.452483930606	823.177114696388	624.829654130604	309.734083103182	901.139110167002	537.162423386888	371.992834707477	890.573481661084	452.660965160521	370.350585553862	824.588799895464	394.947491699885	362.501273874255	689.072434105809	345.520779247158	307.022446628724	676.425283741060	219.541383762171	367.819861097961	939.065280779762	407.811958306974	584.979412239957	870.587308774287	301.095015817661	643.909127276677	917.038401355022	208.303415002724	581.240433080427	787.312126342662	43.280403155529	547.452778250514	958.085193119202	97.732585595256	585.874426859864	869.695580015141	36.855290790448	623.627584743977	1077.802876074047	44.686527765049	615.747704571688	487.236011433812	141.001750172317	400.429741102834	550.520971812120	104.483483337718	320.443573240348	652.401658314070	123.249364840096	344.265895405791	742.079969815491	32.562040676161	315.301712034407	871.940136537132	1085.154834703794	197.043164457750	1098.802157335214	955.924613672434	210.617104993393	733.169855625141	1099.694379126109	767.244763844726	763.230900050429	840.139659961248	774.556794145487	
38	35.918928571429	880.153257649173	955.769860580860	355.031254808731	659.019294239366	1004.235907132519	499.858926297928	851.605227589635	1432.001573851630	335.129405146671	942.000545867766	1357.490390033765	502.034696347144	847.553552411924	1432.040397733588	671.336528171521	844.200589819698	1491.944192632405	486.779428820637	880.852022124534	937.322102769384	629.197936137568	940.683713820151	746.432469190063	600.427208979737	865.733791996605	632.948603708894	653.877392124404	951.360665315161	586.971043773632	576.939429211660	960.613834488154	496.976482047600	582.139664120749	916.428490078480	738.208351029998	380.777469875882	831.903864608265	625.609695217580	311.236681068286	912.553889334558	539.707940846690	373.344627059707	903.201156682938	454.004615796899	371.085333239524	835.466182749170	396.289827421510	363.426241560019	698.078423879960	351.335383501147	308.409401189726	681.937300863030	225.542630750555	368.798999313205	934.348499206224	407.497097352244	586.597592968443	865.260725623836	300.991364982344	645.054990259883	911.276196336822	208.159443532591	582.105244654261	780.810189541701	43.417551977604	547.654483051905	951.714752950772	97.707241704714	586.285421997013	863.179013495611	36.847547171422	623.807279049851	1071.341795093589	44.183459232078	616.028607817250	489.909134317070	154.556092474580	401.458184842687	551.611543084683	115.446247382765	321.239881288040	654.654986186875	129.091190308294	345.099192436779	739.569585516244	32.626496220251	315.649333755093	868.726137284679	1084.492571424050	201.966662393854	1091.241460091316	947.109781673498	214.058050289297	741.227569750653	1098.507485877934	771.711197928197	781.461571328056	840.218975865132	777.196447557432	
39	35.932142857143	879.437588291069	956.236652485577	356.728733167982	659.465541579435	1005.140497642773	503.197708636972	851.221417136322	1432.681039350654	337.438293582934	943.008111411388	1357.802377765560	503.478828374222	850.309610466090	1432.390420333961	673.714168658506	845.254784492215	1492.536065904320	489.251533139262	881.516908949979	937.816583598865	630.921575240883	939.081499516038	745.682937197097	602.937907942839	862.826029300046	633.079034416626	655.962110997834	948.036265101363	586.346545192800	578.988511848812	956.245883159069	496.432888315145	584.012077389434	920.487643176156	741.339791356568	382.920491934162	840.219656131980	626.776062453919	312.466619014504	923.437049851328	542.727816649304	374.375568856409	915.465753868747	455.941193054866	371.593064873875	846.330446829267	398.049448326810	364.116086116742	707.351874117294	356.937283454522	309.668252054548	688.287320265472	231.337994708031	369.732051341108	929.561229601546	407.206854200933	588.185161877692	859.856775705277	300.906612128555	646.149691262395	905.497270641938	208.036799251901	582.971684117850	774.272881603579	43.586334315862	547.859990113452	945.335098122518	97.662597964482	586.706801724864	856.627648355624	36.839329909842	623.979778876869	1064.851758217483	43.621454682526	616.302705292521	494.017381966849	166.767065016597	402.616728436367	554.299377598364	125.610076722839	322.120536498461	658.239961597552	134.874471925974	345.969479947516	739.040898639929	33.114191024122	315.893284782051	865.061613854422	1083.801743510227	206.593463398243	1082.699619961036	938.145432570598	217.010829571599	749.719062122003	1097.223398377562	776.236035419147	800.149669987908	840.626247712267	780.004177282428	
